<?xml version="1.0" encoding="utf-8"?>
<!-- Generator: Adobe Illustrator 24.2.3, SVG Export Plug-In . SVG Version: 6.00 Build 0)  -->
<svg version="1.1" id="Ebene_1" xmlns="http://www.w3.org/2000/svg" xmlns:xlink="http://www.w3.org/1999/xlink" x="0px" y="0px"
	 viewBox="0 0 293.4 68" style="enable-background:new 0 0 293.4 68;" xml:space="preserve">
<style type="text/css">
	.st0{fill:#319C00;}
</style>
<g>
	<g>
		<path class="st0" d="M46.5,50.2H20.9l-7.7,14.2H-0.4L36,0h14.7l10.5,64.4H48.6L46.5,50.2z M44.8,39.5l-3.7-25.9L25.5,39.5H44.8z"
			/>
		<path class="st0" d="M69.5,64.4L83,0h17.4c4.8,0,7.9,0.1,9.3,0.2c2.7,0.3,5,0.8,7.1,1.6c2.1,0.8,4,2,5.7,3.4
			c1.7,1.5,3.2,3.3,4.4,5.3c1.2,2.1,2.2,4.5,2.9,7.2c0.7,2.7,1,5.7,1,8.9c0,6.9-1.3,13.1-4,18.5c-2.7,5.4-6,9.6-10,12.8
			c-3.1,2.5-7,4.3-11.9,5.4c-2.8,0.6-7,1-12.7,1H69.5z M84.9,54.1h6.7c4.9,0,8.4-0.3,10.6-0.9c2.2-0.6,4.2-1.7,6-3.4
			c2.6-2.4,4.8-5.5,6.6-9.5c1.8-4,2.7-8.6,2.7-14c0-4.6-0.7-8-2.2-10.3c-1.5-2.3-3.3-3.8-5.5-4.6c-1.5-0.5-4.2-0.8-8.1-0.8H94
			L84.9,54.1z"/>
		<path class="st0" d="M182.9,64.4h-11.9l-2.3-29.7l-14.2,29.7h-11.7L137,17.8h11.2l3.3,31.3L166,17.8h11.5l1.6,31.3l14.5-31.3h12.7
			L182.9,64.4z"/>
		<path class="st0" d="M213.9,17.8h12.6l-9.8,46.7h-12.6L213.9,17.8z M217.6,0h12.6l-2.4,11.4h-12.6L217.6,0z"/>
		<path class="st0" d="M239.1,17.8h12l-1.2,6.1c3-2.6,5.8-4.4,8.4-5.5c2.6-1.1,5.3-1.6,8.2-1.6c3.8,0,6.9,1.1,9.1,3.3
			c2.2,2.2,3.3,5.1,3.3,8.7c0,1.6-0.5,4.7-1.5,9.3l-5.5,26.4h-12.6l5.5-26.5c0.8-4,1.2-6.3,1.2-7.1c0-1.6-0.5-2.9-1.4-3.8
			c-1-0.9-2.3-1.4-4-1.4c-1.8,0-3.9,0.8-6.2,2.3c-2.3,1.6-4,3.6-5.3,6.2c-0.9,1.8-2,5.5-3.2,11.1l-4,19.2h-12.6L239.1,17.8z"/>
	</g>
</g>
</svg>
